<svg width="200" height="220" viewBox="0 0 200 220" fill="none" xmlns="http://www.w3.org/2000/svg">
  <!-- Document with folded corner -->
  <path d="M40 15 L40 195 L160 195 L160 55 L145 40 L115 15 Z" stroke="#B8B8B8" stroke-width="2.5" fill="white"/>
  <path d="M115 15 L115 55 L160 55" stroke="#B8B8B8" stroke-width="2.5" fill="#E8E8E8"/>

  <!-- Central content area - AI Brain/Network -->
  <rect x="60" y="65" width="80" height="75" rx="12" fill="#F0F0F0" stroke="#C0C0C0" stroke-width="2"/>

  <!-- Neural network nodes -->
  <circle cx="85" cy="85" r="4" fill="#666"/>
  <circle cx="100" cy="82" r="4" fill="#666"/>
  <circle cx="115" cy="85" r="4" fill="#666"/>

  <circle cx="78" cy="105" r="4" fill="#666"/>
  <circle cx="100" cy="105" r="4" fill="#666"/>
  <circle cx="122" cy="105" r="4" fill="#666"/>

  <circle cx="85" cy="125" r="4" fill="#666"/>
  <circle cx="100" cy="128" r="4" fill="#666"/>
  <circle cx="115" cy="125" r="4" fill="#666"/>

  <!-- Connecting lines -->
  <line x1="85" y1="85" x2="100" y2="82" stroke="#888" stroke-width="1.5"/>
  <line x1="100" y1="82" x2="115" y2="85" stroke="#888" stroke-width="1.5"/>
  <line x1="85" y1="85" x2="78" y2="105" stroke="#888" stroke-width="1.5"/>
  <line x1="100" y1="82" x2="100" y2="105" stroke="#888" stroke-width="1.5"/>
  <line x1="115" y1="85" x2="122" y2="105" stroke="#888" stroke-width="1.5"/>
  <line x1="78" y1="105" x2="85" y2="125" stroke="#888" stroke-width="1.5"/>
  <line x1="100" y1="105" x2="100" y2="128" stroke="#888" stroke-width="1.5"/>
  <line x1="122" y1="105" x2="115" y2="125" stroke="#888" stroke-width="1.5"/>

  <!-- Overlay badge - question mark -->
  <circle cx="130" cy="125" r="16" fill="white" stroke="#666" stroke-width="2"/>
  <path d="M127 118 Q130 115 133 118 Q134 121 130 123 L130 126" stroke="#666" stroke-width="2" fill="none" stroke-linecap="round"/>
  <circle cx="130" cy="130" r="1.5" fill="#666"/>
</svg>
