<svg width="64" height="64" viewBox="0 0 64 64" fill="none" xmlns="http://www.w3.org/2000/svg">
  <!-- Chat bubble -->
  <path d="M12 16 L12 44 L20 44 L28 52 L28 44 L52 44 L52 16 Z" stroke="#683D94" stroke-width="2" fill="none"/>

  <!-- AI brain symbol -->
  <circle cx="32" cy="28" r="10" stroke="#683D94" stroke-width="2" fill="none"/>

  <!-- Neural network nodes -->
  <circle cx="26" cy="24" r="2" fill="#99CC33"/>
  <circle cx="32" cy="22" r="2" fill="#99CC33"/>
  <circle cx="38" cy="24" r="2" fill="#99CC33"/>
  <circle cx="26" cy="32" r="2" fill="#99CC33"/>
  <circle cx="32" cy="34" r="2" fill="#99CC33"/>
  <circle cx="38" cy="32" r="2" fill="#99CC33"/>

  <!-- Connecting lines -->
  <line x1="26" y1="24" x2="32" y2="22" stroke="#99CC33" stroke-width="1"/>
  <line x1="32" y1="22" x2="38" y2="24" stroke="#99CC33" stroke-width="1"/>
  <line x1="26" y1="24" x2="26" y2="32" stroke="#99CC33" stroke-width="1"/>
  <line x1="38" y1="24" x2="38" y2="32" stroke="#99CC33" stroke-width="1"/>
  <line x1="26" y1="32" x2="32" y2="34" stroke="#99CC33" stroke-width="1"/>
  <line x1="32" y1="34" x2="38" y2="32" stroke="#99CC33" stroke-width="1"/>
</svg>
