<svg width="200" height="210" viewBox="0 0 200 210" fill="none" xmlns="http://www.w3.org/2000/svg">
  <!-- Stack of documents -->
  <!-- Document 3 (back) -->
  <rect x="70" y="45" width="90" height="120" rx="6" stroke="black" stroke-width="2.5" fill="none"/>

  <!-- Document 2 (middle) -->
  <rect x="55" y="55" width="90" height="120" rx="6" stroke="black" stroke-width="2.5" fill="white" stroke-linejoin="round"/>
  <line x1="65" y1="75" x2="135" y2="75" stroke="black" stroke-width="2"/>
  <line x1="65" y1="90" x2="125" y2="90" stroke="black" stroke-width="2"/>

  <!-- Document 1 (front) -->
  <rect x="40" y="65" width="90" height="120" rx="6" stroke="black" stroke-width="3" fill="white"/>
  <line x1="50" y1="85" x2="120" y2="85" stroke="black" stroke-width="2.5"/>
  <line x1="50" y1="105" x2="120" y2="105" stroke="black" stroke-width="2.5"/>
  <line x1="50" y1="125" x2="110" y2="125" stroke="black" stroke-width="2.5"/>

  <!-- Medical cross -->
  <rect x="78" y="145" width="4" height="16" fill="black"/>
  <rect x="72" y="151" width="16" height="4" fill="black"/>

  <!-- Checkmark badge -->
  <circle cx="140" cy="150" r="22" stroke="black" stroke-width="3" fill="white"/>
  <polyline points="128,150 136,160 152,138" stroke="black" stroke-width="3.5" fill="none" stroke-linecap="round" stroke-linejoin="round"/>

  <!-- Sparkle 1 -->
  <path d="M25 80 L27 90 L32 87 L30 97 L40 95 L33 102 L42 108 L32 108 L35 118 L27 110 L25 120 L23 110 L15 118 L18 108 L8 108 L17 102 L10 95 L20 97 L18 87 L23 90 Z" fill="black"/>

  <!-- Sparkle 2 -->
  <path d="M165 45 L167 55 L172 52 L170 62 L180 60 L173 67 L182 73 L172 73 L175 83 L167 75 L165 85 L163 75 L155 83 L158 73 L148 73 L157 67 L150 60 L160 62 L158 52 L163 55 Z" fill="black"/>
</svg>
