<svg width="200" height="220" viewBox="0 0 200 220" fill="none" xmlns="http://www.w3.org/2000/svg">
  <!-- Document with folded corner -->
  <path d="M40 15 L40 195 L160 195 L160 55 L145 40 L115 15 Z" stroke="#B8B8B8" stroke-width="2.5" fill="white"/>
  <path d="M115 15 L115 55 L160 55" stroke="#B8B8B8" stroke-width="2.5" fill="#E8E8E8"/>

  <!-- Central content area - Medical scan/screening -->
  <rect x="60" y="65" width="80" height="75" rx="12" fill="#F0F0F0" stroke="#C0C0C0" stroke-width="2"/>

  <!-- Person silhouette -->
  <circle cx="90" cy="88" r="8" stroke="#666" stroke-width="1.5" fill="none"/>
  <path d="M80 100 L80 120 M90 100 L90 125 M100 100 L100 120" stroke="#666" stroke-width="1.5" stroke-linecap="round"/>
  <line x1="80" y1="105" x2="70" y2="115" stroke="#666" stroke-width="1.5" stroke-linecap="round"/>
  <line x1="100" y1="105" x2="110" y2="115" stroke="#666" stroke-width="1.5" stroke-linecap="round"/>

  <!-- Scan lines -->
  <line x1="73" y1="95" x2="107" y2="95" stroke="#999" stroke-width="1" stroke-dasharray="3 2"/>
  <line x1="73" y1="105" x2="107" y2="105" stroke="#999" stroke-width="1" stroke-dasharray="3 2"/>
  <line x1="73" y1="115" x2="107" y2="115" stroke="#999" stroke-width="1" stroke-dasharray="3 2"/>

  <!-- Overlay badge - magnifying glass -->
  <circle cx="130" cy="125" r="16" fill="white" stroke="#666" stroke-width="2"/>
  <circle cx="128" cy="123" r="6" stroke="#666" stroke-width="2" fill="none"/>
  <line x1="132" y1="127" x2="136" y2="131" stroke="#666" stroke-width="2" stroke-linecap="round"/>
</svg>
