<svg width="200" height="220" viewBox="0 0 200 220" fill="none" xmlns="http://www.w3.org/2000/svg">
  <!-- Spreadsheet grid -->
  <rect x="40" y="40" width="120" height="130" rx="6" stroke="black" stroke-width="3" fill="none"/>

  <!-- Grid lines - horizontal -->
  <line x1="40" y1="75" x2="160" y2="75" stroke="black" stroke-width="2.5"/>
  <line x1="40" y1="105" x2="160" y2="105" stroke="black" stroke-width="2.5"/>
  <line x1="40" y1="135" x2="160" y2="135" stroke="black" stroke-width="2.5"/>

  <!-- Grid lines - vertical -->
  <line x1="75" y1="40" x2="75" y2="170" stroke="black" stroke-width="2.5"/>
  <line x1="110" y1="40" x2="110" y2="170" stroke="black" stroke-width="2.5"/>

  <!-- Bar chart in cells -->
  <rect x="50" y="120" width="12" height="10" fill="black"/>
  <rect x="85" y="110" width="12" height="20" fill="black"/>
  <rect x="120" y="95" width="12" height="35" fill="black"/>

  <!-- DNA helix molecules -->
  <circle cx="57" cy="55" r="4" fill="black"/>
  <circle cx="68" cy="63" r="4" fill="black"/>
  <circle cx="57" cy="150" r="4" fill="black"/>
  <circle cx="68" cy="158" r="4" fill="black"/>
  <line x1="57" y1="55" x2="68" y2="63" stroke="black" stroke-width="1.5"/>
  <line x1="57" y1="150" x2="68" y2="158" stroke="black" stroke-width="1.5"/>

  <!-- Sparkle -->
  <path d="M25 100 L27 110 L32 107 L30 117 L40 115 L33 122 L42 128 L32 128 L35 138 L27 130 L25 140 L23 130 L15 138 L18 128 L8 128 L17 122 L10 115 L20 117 L18 107 L23 110 Z" fill="black"/>

  <!-- Sparkle 2 -->
  <path d="M175 50 L177 60 L182 57 L180 67 L190 65 L183 72 L192 78 L182 78 L185 88 L177 80 L175 90 L173 80 L165 88 L168 78 L158 78 L167 72 L160 65 L170 67 L168 57 L173 60 Z" fill="black"/>
</svg>
